<mxfile host="app.diagrams.net" agent="Mozilla/5.0 (Windows NT 10.0; Win64; x64; rv:128.0) Gecko/20100101 Firefox/128.0" version="24.7.6">
  <diagram name="Page-1" id="dmlVc1uJ8GraAZ4qDAKU">
    <mxGraphModel dx="1434" dy="774" grid="1" gridSize="10" guides="1" tooltips="1" connect="1" arrows="1" fold="1" page="1" pageScale="1" pageWidth="1169" pageHeight="827" math="0" shadow="0">
      <root>
        <object label="" id="0">
          <mxCell />
        </object>
        <mxCell id="1" parent="0" />
        <mxCell id="t5y2jkzHi3yhldIYPVIA-1" value="enseignant" style="shape=umlActor;verticalLabelPosition=bottom;verticalAlign=top;html=1;outlineConnect=0;" vertex="1" parent="1">
          <mxGeometry x="70" y="230" width="30" height="70" as="geometry" />
        </mxCell>
        <mxCell id="t5y2jkzHi3yhldIYPVIA-2" value="étudiant " style="shape=umlActor;verticalLabelPosition=bottom;verticalAlign=top;html=1;outlineConnect=0;" vertex="1" parent="1">
          <mxGeometry x="710" y="257" width="30" height="60" as="geometry" />
        </mxCell>
        <mxCell id="t5y2jkzHi3yhldIYPVIA-3" value="étudiant " style="shape=umlActor;verticalLabelPosition=bottom;verticalAlign=top;html=1;outlineConnect=0;" vertex="1" parent="1">
          <mxGeometry x="770" y="258" width="30" height="60" as="geometry" />
        </mxCell>
        <mxCell id="t5y2jkzHi3yhldIYPVIA-14" style="edgeStyle=orthogonalEdgeStyle;rounded=0;orthogonalLoop=1;jettySize=auto;html=1;exitX=1;exitY=0.5;exitDx=0;exitDy=0;" edge="1" parent="1">
          <mxGeometry relative="1" as="geometry">
            <mxPoint x="290" y="115" as="sourcePoint" />
            <mxPoint x="290" y="115" as="targetPoint" />
          </mxGeometry>
        </mxCell>
        <mxCell id="t5y2jkzHi3yhldIYPVIA-16" value="&lt;h1 style=&quot;font-size: 14px;&quot;&gt;&lt;font style=&quot;font-size: 14px;&quot; face=&quot;Helvetica&quot;&gt;réserver &lt;br&gt;&lt;/font&gt;&lt;/h1&gt;&lt;h1 style=&quot;font-size: 14px;&quot;&gt;&lt;font style=&quot;font-size: 14px;&quot; face=&quot;G7mMHXs2J9Hv7BV88-Xc&quot;&gt;salles de cours&lt;/font&gt;&lt;/h1&gt;" style="ellipse;whiteSpace=wrap;html=1;" vertex="1" parent="1">
          <mxGeometry x="220" y="40" width="200" height="120" as="geometry" />
        </mxCell>
        <mxCell id="t5y2jkzHi3yhldIYPVIA-17" value="reservation materiel pédagogique " style="ellipse;whiteSpace=wrap;html=1;" vertex="1" parent="1">
          <mxGeometry x="270" y="217" width="120" height="80" as="geometry" />
        </mxCell>
        <mxCell id="t5y2jkzHi3yhldIYPVIA-18" value="&lt;div&gt;le planning&amp;nbsp;&lt;/div&gt;&lt;div&gt;&lt;br&gt; &lt;/div&gt;" style="ellipse;whiteSpace=wrap;html=1;" vertex="1" parent="1">
          <mxGeometry x="460" y="70" width="180" height="130" as="geometry" />
        </mxCell>
        <mxCell id="t5y2jkzHi3yhldIYPVIA-19" value="&lt;div&gt;&amp;nbsp;responsable des&amp;nbsp; formations&lt;/div&gt;" style="ellipse;whiteSpace=wrap;html=1;" vertex="1" parent="1">
          <mxGeometry x="280" y="380" width="170" height="100" as="geometry" />
        </mxCell>
        <mxCell id="t5y2jkzHi3yhldIYPVIA-22" value="" style="endArrow=none;html=1;rounded=0;" edge="1" parent="1" target="t5y2jkzHi3yhldIYPVIA-16">
          <mxGeometry width="50" height="50" relative="1" as="geometry">
            <mxPoint x="110" y="230" as="sourcePoint" />
            <mxPoint x="200" y="160" as="targetPoint" />
          </mxGeometry>
        </mxCell>
        <mxCell id="t5y2jkzHi3yhldIYPVIA-27" value="" style="endArrow=none;html=1;rounded=0;" edge="1" parent="1" target="t5y2jkzHi3yhldIYPVIA-17">
          <mxGeometry width="50" height="50" relative="1" as="geometry">
            <mxPoint x="120" y="265" as="sourcePoint" />
            <mxPoint x="230" y="250" as="targetPoint" />
            <Array as="points" />
          </mxGeometry>
        </mxCell>
        <mxCell id="t5y2jkzHi3yhldIYPVIA-29" value="" style="endArrow=none;html=1;rounded=0;" edge="1" parent="1" target="t5y2jkzHi3yhldIYPVIA-18">
          <mxGeometry width="50" height="50" relative="1" as="geometry">
            <mxPoint x="700" y="270" as="sourcePoint" />
            <mxPoint x="440" y="260" as="targetPoint" />
            <Array as="points" />
          </mxGeometry>
        </mxCell>
        <mxCell id="t5y2jkzHi3yhldIYPVIA-30" value="" style="endArrow=none;html=1;rounded=0;" edge="1" parent="1" source="t5y2jkzHi3yhldIYPVIA-19">
          <mxGeometry width="50" height="50" relative="1" as="geometry">
            <mxPoint x="390" y="310" as="sourcePoint" />
            <mxPoint x="130" y="410" as="targetPoint" />
            <Array as="points" />
          </mxGeometry>
        </mxCell>
        <mxCell id="t5y2jkzHi3yhldIYPVIA-31" value="" style="endArrow=none;html=1;rounded=0;" edge="1" parent="1" target="t5y2jkzHi3yhldIYPVIA-18">
          <mxGeometry width="50" height="50" relative="1" as="geometry">
            <mxPoint x="120" y="240" as="sourcePoint" />
            <mxPoint x="440" y="260" as="targetPoint" />
          </mxGeometry>
        </mxCell>
        <mxCell id="t5y2jkzHi3yhldIYPVIA-32" value="enseignant responsable" style="shape=umlActor;verticalLabelPosition=bottom;verticalAlign=top;html=1;outlineConnect=0;" vertex="1" parent="1">
          <mxGeometry x="70" y="350" width="30" height="60" as="geometry" />
        </mxCell>
        <mxCell id="t5y2jkzHi3yhldIYPVIA-33" value="" style="endArrow=none;html=1;rounded=0;exitX=0.706;exitY=0;exitDx=0;exitDy=0;exitPerimeter=0;entryX=0.456;entryY=1.008;entryDx=0;entryDy=0;entryPerimeter=0;" edge="1" parent="1" source="t5y2jkzHi3yhldIYPVIA-19" target="t5y2jkzHi3yhldIYPVIA-18">
          <mxGeometry width="50" height="50" relative="1" as="geometry">
            <mxPoint x="390" y="340" as="sourcePoint" />
            <mxPoint x="440" y="290" as="targetPoint" />
          </mxGeometry>
        </mxCell>
      </root>
    </mxGraphModel>
  </diagram>
</mxfile>
